<svg width="32" height="32" viewBox="0 0 32 32" fill="none" xmlns="http://www.w3.org/2000/svg">
<path d="M6.57335 6.57333L12.2267 12.2267M19.7734 19.7733L25.4267 25.4267M25.4267 6.57333L19.7734 12.2267L24.48 7.52M6.57335 25.4267L12.2267 19.7733M29.3334 16C29.3334 23.3638 23.3638 29.3333 16 29.3333C8.63622 29.3333 2.66669 23.3638 2.66669 16C2.66669 8.6362 8.63622 2.66666 16 2.66666C23.3638 2.66666 29.3334 8.6362 29.3334 16ZM21.3334 16C21.3334 18.9455 18.9455 21.3333 16 21.3333C13.0545 21.3333 10.6667 18.9455 10.6667 16C10.6667 13.0545 13.0545 10.6667 16 10.6667C18.9455 10.6667 21.3334 13.0545 21.3334 16Z" stroke="#1E1E1E" stroke-width="3" stroke-linecap="round" stroke-linejoin="round"/>
</svg>
